<svg width="128" height="128" viewBox="0 0 128 128" fill="none" xmlns="http://www.w3.org/2000/svg">
<g clip-path="url(#clip0_1_6)">
<rect width="128" height="128" fill="#3DA7F3"/>
<path d="M84.952 92.72L83.16 73.776L74.456 67.632L65.496 66.224H50.136L51.416 104.24L66.136 104.88L75.224 102.96L84.952 92.72ZM65.496 59.824L78.808 52.784L80.216 38.832L73.688 28.208L66.008 26.16L51.032 26.544L50.136 60.464L65.496 59.824ZM66.136 20.4L80.984 22.32L93.016 34.48V46.512L86.104 56.88L74.072 61.872V62.128L87.128 64.944L96.6 74.672L99.032 83.888L94.168 100.912L81.368 108.336L65.624 110.64L45.016 110L27.48 111.28L27.736 106.8L37.976 103.6L39.256 64.304L37.976 26.8L27.48 23.728L28.12 19.248L44.376 20.4H66.136Z" fill="white"/>
</g>
<defs>
<clipPath id="clip0_1_6">
<rect width="128" height="128" fill="white"/>
</clipPath>
</defs>
</svg>
