<svg width="766" height="101" viewBox="0 0 766 101" fill="none" xmlns="http://www.w3.org/2000/svg">
<path d="M57.952 79.72L56.16 60.776L47.456 54.632L38.496 53.224H23.136L24.416 91.24L39.136 91.88L48.224 89.96L57.952 79.72ZM38.496 46.824L51.808 39.784L53.216 25.832L46.688 15.208L39.008 13.16L24.032 13.544L23.136 47.464L38.496 46.824ZM39.136 7.39999L53.984 9.31999L66.016 21.48V33.512L59.104 43.88L47.072 48.872V49.128L60.128 51.944L69.6 61.672L72.032 70.888L67.168 87.912L54.368 95.336L38.624 97.64L18.016 97L0.48 98.28L0.736 93.8L10.976 90.6L12.256 51.304L10.976 13.8L0.48 10.728L1.12 6.24799L17.376 7.39999H39.136ZM82.367 72.68V55.912L89.919 40.68L104.383 31.08L121.919 30.44L137.919 40.04L146.239 55.4L144.703 78.824L135.231 93.928L115.391 99.56L98.751 96.36L86.591 85.352L82.367 72.68ZM96.447 51.56L95.807 65.896L97.343 80.744L102.847 90.344L116.415 93.672L128.959 88.168L132.671 68.2L131.391 51.56L126.655 40.936L117.311 36.2L104.511 37.608L96.447 51.56ZM156.117 72.68V55.912L163.669 40.68L178.133 31.08L195.669 30.44L211.669 40.04L219.989 55.4L218.453 78.824L208.981 93.928L189.141 99.56L172.501 96.36L160.341 85.352L156.117 72.68ZM170.197 51.56L169.557 65.896L171.093 80.744L176.597 90.344L190.165 93.672L202.709 88.168L206.421 68.2L205.141 51.56L200.405 40.936L191.061 36.2L178.261 37.608L170.197 51.56ZM265.707 46.824L271.595 38.248L263.019 36.84L263.659 32.36L277.099 33L288.875 32.36L288.619 36.84L279.659 39.656L261.355 59.368L271.979 74.344L285.163 90.6L292.715 93.16L292.075 97.64L278.763 97L266.603 97.64L266.859 93.16L273.003 92.776L269.547 86.376L254.699 66.664H248.427L248.683 75.752L248.939 90.6L257.771 93.16L257.003 97.64L242.795 97L226.411 97.64L226.923 93.16L235.883 90.984L236.267 77.16L236.779 49.128L236.267 20.584L235.627 7.784L226.539 8.168L225.899 3.688L243.563 0.231995L249.963 1.63999L249.067 18.536L248.299 61.672H252.267L265.707 46.824ZM320.761 56.296L322.041 90.6L334.457 93.16L333.817 98.28L315.641 97L298.105 98.28L298.361 93.16L308.985 90.6L309.881 57.832L309.241 13.8L298.745 11.24L299.385 6.12L315.001 7.39999L332.153 5.992L342.649 6.75999L353.017 10.088L363.129 17.768L366.329 30.952L364.025 45.16L356.217 50.792L347.769 53.224L366.073 92.008H376.057L376.825 96.232L361.849 99.304L353.529 92.52L337.657 56.04L333.689 57.064L320.761 56.296ZM321.657 13.16L320.889 50.664L332.153 51.304L349.433 44.776L353.145 33.64L350.457 21.864L340.345 12.008L321.657 13.16ZM392.792 62.568L392.664 63.72L396.12 81.768L406.232 91.752L418.008 93.032L430.04 86.632L432.344 89.96L422.232 98.024L410.2 99.56L397.656 96.616L386.776 87.528L380.248 68.328L382.424 51.176L389.08 39.144L402.52 31.72L413.784 30.312L422.744 33.128L429.656 39.4L433.624 50.792L433.752 61.416L431.96 62.824L414.936 63.976L392.792 62.568ZM399.192 41.832L394.2 51.56L393.432 57.32L412.888 57.576L421.72 55.656L420.952 43.752L417.112 37.224L408.92 36.072L399.192 41.832ZM450.818 50.408L445.058 39.144L436.482 36.84L437.122 32.36L452.738 33L469.25 32.36L468.994 36.84L460.93 39.4L462.978 46.824L471.298 68.2L476.418 86.888H476.802L480.258 73.832L490.37 47.208L492.418 39.016L483.33 36.84L483.97 32.36L495.618 33L509.186 32.36L508.93 36.84L500.994 39.4L495.49 51.176L479.746 93.288L475.906 99.944L471.682 100.84L450.818 50.408ZM520.633 6.376L526.521 3.56L532.665 5.60799L535.481 12.52L531.897 18.152L525.881 20.584L520.249 17.128L517.561 11.368L520.633 6.376ZM535.097 50.536L534.329 63.336L534.713 75.752L535.225 90.6L544.569 93.16L543.929 97.64L528.825 97L513.209 97.64L513.465 93.16L521.913 90.6L522.553 77.16L522.297 52.584L521.657 39.272L512.569 39.656L511.929 35.176L529.593 31.72L535.993 33.128L535.097 50.536ZM564.542 62.568L564.414 63.72L567.87 81.768L577.982 91.752L589.758 93.032L601.79 86.632L604.094 89.96L593.982 98.024L581.95 99.56L569.406 96.616L558.526 87.528L551.998 68.328L554.174 51.176L560.83 39.144L574.27 31.72L585.534 30.312L594.494 33.128L601.406 39.4L605.374 50.792L605.502 61.416L603.71 62.824L586.686 63.976L564.542 62.568ZM570.942 41.832L565.95 51.56L565.182 57.32L584.638 57.576L593.47 55.656L592.702 43.752L588.862 37.224L580.67 36.072L570.942 41.832ZM623.592 50.408L617.832 39.144L609.256 36.84L609.896 32.36L625.512 33L641.128 32.36L640.872 36.84L632.168 39.4L634.216 46.824L641.128 68.2L646.248 86.888H646.632L650.088 73.832L659.816 46.312L656.232 39.144L647.656 36.84L648.296 32.36L663.912 33L679.528 32.36L679.272 36.84L670.568 39.4L672.616 46.824L678.76 68.2L683.88 86.888H684.264L687.72 73.832L696.68 47.208L698.728 39.016L688.744 36.84L689.384 32.36L701.928 33L715.496 32.36L715.24 36.84L707.304 39.4L701.8 51.176L688.104 93.288L684.136 99.944L679.912 100.84L663.528 55.016L650.472 93.288L646.504 99.944L642.28 100.84L623.592 50.408ZM728.196 92.008L738.82 93.672L750.724 92.008L753.54 83.304L750.084 76.648L726.276 62.184L721.156 54.12L720.9 40.552L729.988 32.872L743.428 30.44L762.244 34.28L759.556 53.096L754.18 51.304L751.748 37.992L742.916 36.328L733.316 38.504L730.884 45.544L733.956 53.096L758.532 67.176L764.548 74.728L765.06 86.76L756.356 97L740.996 99.56L730.372 99.048L718.468 94.44L721.668 76.008L727.172 77.8L728.196 92.008Z" fill="#3DA7F3"/>
</svg>
